<?xml version="1.0" encoding="UTF-8"?>
<svg version="1.1" xmlns="http://www.w3.org/2000/svg" width="964" height="552">
<path d="M0 0 C1.10056158 -0.00256327 2.20112316 -0.00512655 3.33503509 -0.0077675 C6.98773153 -0.01267138 10.64000582 0.0037315 14.29266357 0.02018738 C16.92495141 0.02103439 19.55721413 0.02068887 22.1894989 0.01885986 C27.83859804 0.01729356 33.48759252 0.02663505 39.13666534 0.04357338 C47.30406619 0.06804668 55.47141688 0.07577713 63.63885042 0.07953735 C76.89278681 0.08608883 90.14666753 0.10601446 103.40057373 0.13444519 C116.26873498 0.16201961 129.13688106 0.18323659 142.00506592 0.19596863 C143.19662862 0.19715088 143.19662862 0.19715088 144.4122633 0.19835702 C148.39776262 0.20227239 152.38326204 0.20606345 156.36876154 0.20979273 C189.38607929 0.24084802 222.4033288 0.29364811 255.42059326 0.36076355 C255.43266395 3.2416356 255.44147446 6.12245646 255.44842529 9.00334167 C255.45215652 9.81394043 255.45588776 10.62453918 255.45973206 11.45970154 C255.47034915 17.33151287 255.19126506 23.05028762 254.29559326 28.86076355 C254.0976416 30.16738953 254.0976416 30.16738953 253.89569092 31.50041199 C250.68636391 50.93996588 242.62760954 69.62397704 229.42059326 84.36076355 C228.71160889 85.18834167 228.00262451 86.0159198 227.27215576 86.86857605 C207.86740625 109.13297286 180.91114704 123.14545316 151.33461618 125.52886081 C146.45817382 125.77975133 141.58367621 125.75653033 136.70233154 125.72966003 C135.11177818 125.7321369 133.52122647 125.73598419 131.93067932 125.74107361 C128.54455176 125.74932029 125.15859291 125.74868335 121.77246475 125.7408886 C116.40801662 125.72916985 111.04377943 125.74157779 105.67935181 125.75750732 C92.36811537 125.79346252 79.05688616 125.7999305 65.74560547 125.79740906 C55.36917622 125.79569431 44.99292286 125.80289046 34.6165427 125.83738762 C29.29312271 125.85409442 23.97013408 125.85246481 18.64671636 125.8365649 C15.33014004 125.83073999 12.01376553 125.8415563 8.69722557 125.85681152 C7.16990311 125.8605148 5.64254583 125.85749672 4.11525536 125.84694099 C-8.05188572 125.7685007 -18.00885717 127.40010127 -27.58721924 135.37638855 C-30.8776682 138.65393379 -33.16693276 142.41925677 -35.57940674 146.36076355 C-41.3780472 155.11463401 -48.09671383 161.10206176 -58.57940674 163.36076355 C-62.14190674 163.54826355 -62.14190674 163.54826355 -64.57940674 163.36076355 C-65.34384811 148.07193611 -59.34712336 133.15523803 -49.57550049 121.44670105 C-37.48940776 108.81661589 -21.85011304 100.91045877 -4.26957226 100.2332716 C-2.54447666 100.23138568 -2.54447666 100.23138568 -0.78453064 100.22946167 C-0.13788147 100.22734596 0.50876769 100.22523024 1.17501229 100.22305042 C3.32240116 100.21710237 5.4697304 100.21804685 7.61712646 100.21891785 C9.16528929 100.21588266 10.71345123 100.21236021 12.26161194 100.20838928 C15.58836782 100.20052376 18.9151131 100.19536406 22.2418766 100.19209862 C27.51918897 100.18615774 32.79643498 100.16958566 38.07371521 100.15075684 C39.88581177 100.14441978 41.69790836 100.13809415 43.510005 100.13177967 C44.87114424 100.12703095 44.87114424 100.12703095 46.25978124 100.1221863 C58.53578544 100.08025148 70.81175856 100.04717971 83.08782959 100.03483582 C91.38077555 100.02641168 99.67355649 100.00375964 107.96641988 99.96548015 C112.34436677 99.94586154 116.72206781 99.93326701 121.10006142 99.93831444 C153.07825717 99.96817137 180.18763354 97.3005395 204.75262451 74.18888855 C216.77846396 61.44114659 224.72024148 45.75609544 228.4743042 28.6681366 C228.65217468 27.86063461 228.83004517 27.05313263 229.01330566 26.22116089 C229.14771057 25.60722977 229.28211548 24.99329865 229.42059326 24.36076355 C200.06938498 24.44277979 170.71822238 24.53483999 141.36709051 24.64081516 C137.89762034 24.65333321 134.42814987 24.66576611 130.9586792 24.67814636 C130.2680043 24.68061236 129.5773294 24.68307835 128.86572495 24.68561907 C117.69968708 24.72528363 106.53363917 24.75805878 95.36757216 24.78826337 C83.90011678 24.8194375 72.43271009 24.85821783 60.9653008 24.90355361 C54.52847194 24.92876225 48.09167288 24.95056018 41.65480804 24.96410751 C35.59082577 24.97697898 29.52694596 24.99908806 23.46302032 25.02814674 C21.24274303 25.03718283 19.02244925 25.04290343 16.80215454 25.04497719 C-7.23710511 24.55407379 -7.23710511 24.55407379 -27.90362549 35.4740448 C-34.96919168 43.03589845 -37.97571586 50.0930092 -39.07940674 60.29826355 C-40.45816328 72.98864947 -44.65771349 81.75331585 -54.66534424 89.86076355 C-63.11735662 96.36076355 -63.11735662 96.36076355 -64.57940674 96.36076355 C-64.65422483 90.4566568 -64.7083213 84.55283323 -64.74420166 78.64836121 C-64.75917816 76.6447315 -64.77956654 74.64113394 -64.8057251 72.63761902 C-65.06497844 52.25318972 -62.7183934 34.83737401 -47.81378174 19.53263855 C-47.07643799 18.8159198 -46.33909424 18.09920105 -45.57940674 17.36076355 C-44.96581299 16.7265448 -44.35221924 16.09232605 -43.72003174 15.43888855 C-32.00318421 4.122617 -15.88813314 -0.13829546 0 0 Z " fill="#0049AC" transform="translate(132.57940673828125,27.639236450195313)"/>
<path d="M0 0 C1.10390579 -0.00043808 2.20781158 -0.00087616 3.34516907 -0.00132751 C6.94872504 0.0007417 10.5518 0.02398422 14.15527344 0.04760742 C16.67160793 0.05321001 19.18794572 0.05747698 21.70428467 0.06047058 C27.62197483 0.07070587 33.53949092 0.09428468 39.45711017 0.12451905 C46.86558225 0.16153702 54.27407609 0.17749601 61.68261719 0.1940918 C74.87671313 0.22616413 88.07067 0.27671183 101.26464844 0.34057617 C101.29784176 3.48117537 101.31748474 6.6217283 101.33496094 9.76245117 C101.34910034 11.07705322 101.34910034 11.07705322 101.36352539 12.41821289 C101.46394466 36.58578361 92.97477228 58.97285107 77.26464844 77.34057617 C76.50152344 78.35120117 75.73839844 79.36182617 74.95214844 80.40307617 C58.5050604 98.38012589 33.91543683 110.48584668 9.5559082 111.72167969 C3.27230014 111.92669847 -3.01138793 111.95415057 -9.29785156 111.96557617 C-38.18457906 112.11408282 -64.03904145 113.46631573 -86.07519531 134.58276367 C-94.53621801 143.40536854 -100.17987114 153.39738836 -103.67285156 165.02807617 C-103.87233398 165.69202393 -104.07181641 166.35597168 -104.27734375 167.04003906 C-107.30061538 178.07551942 -106.87293998 189.60250621 -106.83300781 200.94604492 C-106.83113848 202.52216039 -106.82971702 204.09827644 -106.82872009 205.6743927 C-106.82493544 209.785875 -106.81514065 213.89732094 -106.80401611 218.00878906 C-106.793714 222.21898914 -106.78920377 226.4291952 -106.78417969 230.6394043 C-106.77351399 238.87314478 -106.75648738 247.10685593 -106.73535156 255.34057617 C-104.65228131 254.72380355 -102.57109522 254.10066509 -100.49072266 253.47485352 C-98.7519838 252.95536636 -98.7519838 252.95536636 -96.9781189 252.42538452 C-90.50277486 250.25917691 -85.24291106 246.28649855 -79.73535156 242.34057617 C-78.7028125 241.61741211 -78.7028125 241.61741211 -77.64941406 240.87963867 C-60.88382855 227.89221327 -50.04432679 203.84297064 -46.73535156 183.34057617 C-46.26368155 178.12624654 -46.0058949 172.89731972 -45.78808594 167.66674805 C-45.29156724 159.61921231 -43.70196 152.23853271 -37.76049805 146.39990234 C-32.5855494 142.15315983 -27.46476814 140.34057617 -20.73535156 140.34057617 C-20.66015854 146.02902465 -20.60626659 151.71717225 -20.57055664 157.40600586 C-20.55564116 159.33379161 -20.53530151 161.2615445 -20.5090332 163.18920898 C-20.03999815 198.54157621 -31.85813092 229.21239389 -56.61035156 254.65307617 C-72.98518107 270.84231014 -94.88468098 281.50528245 -118.08300781 281.4284668 C-119.08203125 281.42008789 -120.08105469 281.41170898 -121.11035156 281.40307617 C-122.13257812 281.39856445 -123.15480469 281.39405273 -124.20800781 281.3894043 C-126.71718351 281.37767918 -129.22623646 281.36126794 -131.73535156 281.34057617 C-131.8285048 267.57005642 -131.89934504 253.79961306 -131.94260025 240.02884102 C-131.96337262 233.63280134 -131.99149911 227.23697906 -132.03710938 220.84106445 C-132.08093873 214.65536268 -132.10456625 208.4698685 -132.11486053 202.28402328 C-132.12218586 199.93760796 -132.13648801 197.5912025 -132.15827179 195.24487686 C-132.44205623 163.37771572 -124.55486153 137.93005271 -102.02050781 114.52026367 C-83.24789238 96.07087261 -58.13643859 87.2664727 -32.09082031 87.16479492 C-29.78026456 87.14157331 -27.46971768 87.11745507 -25.15917969 87.0925293 C-21.55698902 87.05766545 -17.95512081 87.02819754 -14.3527832 87.01464844 C11.46955599 86.89880524 34.94886384 84.16423887 54.26464844 65.34057617 C59.81678033 59.6432905 63.97811935 53.51716716 67.57714844 46.46557617 C67.89063232 45.85447998 68.20411621 45.24338379 68.52709961 44.61376953 C70.57306167 40.37910388 72.01537225 36.06718347 73.37866211 31.56665039 C73.73345139 30.39963593 74.08824066 29.23262146 74.45378113 28.03024292 C74.72136734 27.14265289 74.98895355 26.25506287 75.26464844 25.34057617 C64.24141816 25.37874054 53.21852468 25.43825804 42.1955595 25.52447891 C37.07624278 25.56386283 31.95709573 25.59609574 26.83764648 25.61157227 C21.89018941 25.62679885 16.94319909 25.66135022 11.9959507 25.70888519 C10.11551805 25.72363733 8.23501875 25.73161362 6.35452843 25.73246002 C-7.71627149 25.74515409 -18.74791386 26.51488423 -29.39160156 36.70385742 C-32.67533078 40.39805279 -35.23101211 44.44345933 -37.88378906 48.60229492 C-42.85518884 55.95451274 -49.2121729 59.16922465 -57.73535156 61.34057617 C-60.19274698 61.60371696 -62.26267233 61.56036988 -64.73535156 61.34057617 C-64.15934811 43.48446909 -57.92945272 27.74589954 -44.73535156 15.34057617 C-31.75419505 4.63112205 -16.69835363 -0.17770825 0 0 Z " fill="#0049AC" transform="translate(199.7353515625,187.659423828125)"/>
<path d="M0 0 C10.56 0 21.12 0 32 0 C40.17116639 9.42826891 40.17116639 9.42826891 41.77734375 13.7265625 C43.80415016 18.69695694 46.35195605 22.89593392 49.375 27.3125 C50.28798149 28.70955103 51.19674964 30.10936341 52.1015625 31.51171875 C52.80200684 32.59332275 52.80200684 32.59332275 53.51660156 33.69677734 C56.28307975 37.99219459 59.01316652 42.3106434 61.75 46.625 C69.08609724 58.1350836 76.54388808 69.56729506 84 81 C84.33 54.27 84.66 27.54 85 0 C95.56 0 106.12 0 117 0 C117 44.88 117 89.76 117 136 C106.11 136 95.22 136 84 136 C76.54269155 128.05483025 76.54269155 128.05483025 75.15625 124.1484375 C72.88389204 118.44787795 69.69080908 113.60108093 66.3125 108.5 C65.12121209 106.63392318 63.93378855 104.76537444 62.75 102.89453125 C58.7811669 96.65223788 54.7989193 90.41857415 50.8125 84.1875 C50.19608643 83.22328125 49.57967285 82.2590625 48.94458008 81.265625 C43.32781453 72.48965891 37.66064354 63.74826729 32 55 C31.67 81.73 31.34 108.46 31 136 C20.77 136 10.54 136 0 136 C0 91.12 0 46.24 0 0 Z " fill="#E87623" transform="translate(378,326)"/>
<path d="M0 0 C1.1182592 0.00371613 1.1182592 0.00371613 2.2591095 0.00750732 C3.43737808 -0.00015907 3.43737808 -0.00015907 4.63945007 -0.00798035 C7.24394791 -0.02191502 9.84818227 -0.02091667 12.45271301 -0.01861572 C14.25870869 -0.0225006 16.06470345 -0.02683484 17.87069702 -0.03160095 C21.6595404 -0.03907155 25.44829061 -0.03876588 29.23713684 -0.0335083 C34.09760049 -0.02771332 38.95768313 -0.04464121 43.81808376 -0.06785297 C47.54895262 -0.08257009 51.27972929 -0.08346477 55.01062202 -0.08034325 C56.80281898 -0.0808575 58.59502096 -0.08611477 60.38718987 -0.09615517 C62.8916247 -0.10846295 65.39531204 -0.10176231 67.8997345 -0.09014893 C68.6432164 -0.09779266 69.3866983 -0.1054364 70.15270996 -0.11331177 C75.15973654 -0.06187376 75.15973654 -0.06187376 77.59396362 1.66706848 C81.22908021 7.25773127 79.89029292 17.0887764 79.25544739 23.42425537 C77.75726884 30.42812042 72.53963137 34.88718506 67.44880676 39.56585693 C64.52235217 42.3489976 61.98007503 45.43608383 59.39411926 48.53216553 C58.398777 49.6955693 57.40270113 50.85834589 56.40583801 52.02044678 C53.96614851 54.88835741 51.57824607 57.79509112 49.20661926 60.71966553 C45.10431977 65.7715027 40.85709949 70.68522533 36.58406067 75.59222412 C32.60114829 80.1684595 28.65213933 84.7706807 24.7603302 89.42474365 C22.3341258 92.31910048 19.86484126 95.15999911 17.32771301 97.95794678 C16.77607483 98.57532715 16.22443665 99.19270752 15.65608215 99.82879639 C14.59544528 101.01345105 13.52360087 102.18820386 12.438797 103.35076904 C9.05821685 107.15682137 7.70838577 109.99945884 7.64411926 115.28216553 C10.38738111 118.02542737 11.93372061 117.53898006 15.77449036 117.55340576 C17.0627774 117.56359238 18.35106445 117.57377899 19.6783905 117.58427429 C20.36896923 117.58521528 21.05954796 117.58615627 21.77105331 117.58712578 C23.93161585 117.59078308 26.09171669 117.6074919 28.25218201 117.62788391 C34.3951102 117.68335441 40.5381072 117.71396987 46.68122864 117.73846436 C50.43786977 117.75434735 54.19418476 117.78457615 57.95065689 117.82322884 C59.3819342 117.8348752 60.81326988 117.84080915 62.24459457 117.84090996 C64.24809516 117.84110218 66.25156485 117.86088886 68.25495911 117.88153076 C69.39476227 117.88660141 70.53456543 117.89167206 71.70890808 117.89689636 C74.95089139 118.32243174 76.34363372 118.99266416 78.64411926 121.28216553 C79.16169739 123.6864624 79.16169739 123.6864624 79.17536926 126.50091553 C79.18310364 128.02265381 79.18310364 128.02265381 79.19099426 129.57513428 C79.17552551 130.63345459 79.16005676 131.6917749 79.14411926 132.78216553 C79.16732239 134.369646 79.16732239 134.369646 79.19099426 135.98919678 C79.18583801 137.00368896 79.18068176 138.01818115 79.17536926 139.06341553 C79.17085754 139.99218506 79.16634583 140.92095459 79.16169739 141.87786865 C78.64411926 144.28216553 78.64411926 144.28216553 77.22535706 145.91114807 C73.2048374 148.04663619 69.31004728 147.67421766 64.82673645 147.6227417 C63.333564 147.62339882 63.333564 147.62339882 61.81022644 147.62406921 C58.5202828 147.62197938 55.23084888 147.59863863 51.94099426 147.57513428 C49.65984882 147.56953903 47.37869977 147.5652686 45.09754944 147.56227112 C39.09364367 147.5508168 33.08995562 147.52134432 27.08613586 147.48815918 C20.95966029 147.4574711 14.83314954 147.44376846 8.70661926 147.4286499 C-3.31430973 147.39647539 -15.33507713 147.34527174 -27.35588074 147.28216553 C-27.68588074 146.29216553 -28.01588074 145.30216553 -28.35588074 144.28216553 C-29.39228699 144.24478271 -30.42869324 144.2073999 -31.49650574 144.16888428 C-32.86633258 144.10320765 -34.23612265 144.03676089 -35.60588074 143.96966553 C-36.62875183 143.93582764 -36.62875183 143.93582764 -37.67228699 143.90130615 C-41.8073937 143.68049948 -44.33502508 143.18623553 -47.35588074 140.28216553 C-47.88181824 141.01499756 -47.88181824 141.01499756 -48.41838074 141.76263428 C-51.31777361 144.03655328 -53.72838804 143.64378782 -57.35588074 143.59466553 C-58.59338074 143.59079834 -59.83088074 143.58693115 -61.10588074 143.58294678 C-64.35588074 143.28216553 -64.35588074 143.28216553 -67.35588074 141.28216553 C-67.60588074 138.71966553 -67.60588074 138.71966553 -67.35588074 136.28216553 C-66.35588074 135.28216553 -66.35588074 135.28216553 -62.42619324 135.18450928 C-60.77772762 135.19118864 -59.12927722 135.20315616 -57.48088074 135.21966553 C-56.65201355 135.22417725 -55.82314636 135.22868896 -54.96916199 135.2333374 C-53.42373748 135.24207567 -51.87832231 135.25285968 -50.33293152 135.26629639 C-45.87474258 135.30208081 -41.42515409 135.18619676 -36.96916199 135.06341553 C-36.15215317 135.04121948 -35.33514435 135.01902344 -34.49337769 134.99615479 C-31.88503485 134.92520534 -29.2767078 134.8536923 -26.66838074 134.78216553 C-24.89950154 134.73395131 -23.13062134 134.68577378 -21.36174011 134.63763428 C-17.02644193 134.51957029 -12.69115784 134.40100086 -8.35588074 134.28216553 C-8.35588074 132.63216553 -8.35588074 130.98216553 -8.35588074 129.28216553 C-9.21698708 129.26670433 -9.21698708 129.26670433 -10.0954895 129.25093079 C-16.04853736 129.14309119 -22.00142689 129.02847576 -27.95426941 128.90985107 C-30.1785197 128.86642965 -32.40280489 128.82476008 -34.62712097 128.78485107 C-37.81676269 128.72732247 -41.00622754 128.66357869 -44.19572449 128.59857178 C-45.19675705 128.58185928 -46.19778961 128.56514679 -47.22915649 128.54792786 C-48.15003555 128.52798264 -49.07091461 128.50803741 -50.0196991 128.48748779 C-50.83466354 128.47194351 -51.64962799 128.45639923 -52.48928833 128.44038391 C-54.35588074 128.28216553 -54.35588074 128.28216553 -55.35588074 127.28216553 C-55.48088074 124.78216553 -55.48088074 124.78216553 -55.35588074 122.28216553 C-53.71456662 120.64085141 -51.77782565 121.07673193 -49.51603699 121.00091553 C-48.04553894 120.94484131 -48.04553894 120.94484131 -46.54533386 120.88763428 C-44.99749207 120.83542725 -44.99749207 120.83542725 -43.41838074 120.78216553 C-41.38828677 120.71343507 -39.35832272 120.64071531 -37.32853699 120.56341553 C-36.42369568 120.53312256 -35.51885437 120.50282959 -34.58659363 120.47161865 C-32.31827176 120.41749383 -32.31827176 120.41749383 -30.35588074 119.28216553 C-29.70374782 117.25753298 -29.70374782 117.25753298 -29.35588074 115.28216553 C-30.42709167 115.22157959 -31.49830261 115.16099365 -32.60197449 115.09857178 C-33.99912465 115.01418016 -35.3962593 114.92953147 -36.79338074 114.84466553 C-37.50043152 114.80534912 -38.2074823 114.76603271 -38.93595886 114.7255249 C-44.24259949 114.39544678 -44.24259949 114.39544678 -45.35588074 113.28216553 C-45.39668857 111.28258189 -45.3984243 109.28171299 -45.35588074 107.28216553 C-42.89467232 106.05156132 -41.09811208 106.07639322 -38.34806824 105.96575928 C-37.36193542 105.92386475 -36.37580261 105.88197021 -35.35978699 105.83880615 C-34.32724792 105.79948975 -33.29470886 105.76017334 -32.23088074 105.71966553 C-31.1906073 105.67648193 -30.15033386 105.63329834 -29.07853699 105.58880615 C-26.50445545 105.48253673 -23.93027565 105.3804997 -21.35588074 105.28216553 C-21.35588074 103.96216553 -21.35588074 102.64216553 -21.35588074 101.28216553 C-22.19892761 101.22157959 -23.04197449 101.16099365 -23.91056824 101.09857178 C-25.55412292 100.97288818 -25.55412292 100.97288818 -27.23088074 100.84466553 C-28.86670105 100.72284912 -28.86670105 100.72284912 -30.53556824 100.59857178 C-33.35588074 100.28216553 -33.35588074 100.28216553 -35.35588074 99.28216553 C-35.35588074 97.30216553 -35.35588074 95.32216553 -35.35588074 93.28216553 C-32.08272565 91.64558798 -28.44965843 92.03908483 -24.84806824 91.96575928 C-24.00744843 91.94497818 -23.16682861 91.92419708 -22.30073547 91.90278625 C-19.61086839 91.83731114 -16.92090231 91.77841533 -14.23088074 91.71966553 C-12.40925585 91.67647836 -10.58764103 91.63286401 -8.76603699 91.58880615 C-4.2960868 91.48163185 0.17396313 91.38035867 4.64411926 91.28216553 C4.64411926 89.96216553 4.64411926 88.64216553 4.64411926 87.28216553 C3.84191956 87.26758301 3.03971985 87.25300049 2.21321106 87.23797607 C-1.41447773 87.16359834 -5.04123578 87.0669031 -8.66838074 86.96966553 C-9.93101746 86.94710693 -11.19365417 86.92454834 -12.49455261 86.90130615 C-14.30729675 86.84813232 -14.30729675 86.84813232 -16.15666199 86.79388428 C-17.27210388 86.7677002 -18.38754578 86.74151611 -19.53678894 86.71453857 C-22.59326898 86.24575654 -23.52047957 85.70399287 -25.35588074 83.28216553 C-24.69588074 81.63216553 -24.03588074 79.98216553 -23.35588074 78.28216553 C-14.77588074 77.95216553 -6.19588074 77.62216553 2.64411926 77.28216553 C2.97411926 75.63216553 3.30411926 73.98216553 3.64411926 72.28216553 C2.61351379 72.33437256 2.61351379 72.33437256 1.56208801 72.38763428 C0.66103333 72.41470459 -0.24002136 72.4417749 -1.16838074 72.46966553 C-2.50836121 72.52187256 -2.50836121 72.52187256 -3.87541199 72.57513428 C-6.77235588 72.23297555 -7.58143102 71.52822979 -9.35588074 69.28216553 C-8.69588074 67.63216553 -8.03588074 65.98216553 -7.35588074 64.28216553 C5.84411926 63.95216553 19.04411926 63.62216553 32.64411926 63.28216553 C32.97411926 61.96216553 33.30411926 60.64216553 33.64411926 59.28216553 C30.37096418 57.64558798 26.73789696 58.03908483 23.13630676 57.96575928 C21.87537704 57.93458763 21.87537704 57.93458763 20.588974 57.90278625 C17.89910691 57.83731114 15.20914084 57.77841533 12.51911926 57.71966553 C10.69749437 57.67647836 8.87587955 57.63286401 7.05427551 57.58880615 C2.58432532 57.48163185 -1.8857246 57.38035867 -6.35588074 57.28216553 C-7.48088074 52.53216553 -7.48088074 52.53216553 -6.35588074 50.28216553 C5.19411926 49.95216553 16.74411926 49.62216553 28.64411926 49.28216553 C28.31411926 47.63216553 27.98411926 45.98216553 27.64411926 44.28216553 C26.65669739 44.23318115 25.66927551 44.18419678 24.65193176 44.13372803 C23.37060364 44.0589624 22.08927551 43.98419678 20.76911926 43.90716553 C19.49294739 43.83755615 18.21677551 43.76794678 16.90193176 43.69622803 C13.64411926 43.28216553 13.64411926 43.28216553 11.64411926 41.28216553 C11.89411926 38.71966553 11.89411926 38.71966553 12.64411926 36.28216553 C15.3581322 34.92515906 17.49258243 35.16977943 20.52693176 35.18450928 C21.69353333 35.18773193 22.86013489 35.19095459 24.06208801 35.1942749 C25.28540833 35.20265381 26.50872864 35.21103271 27.76911926 35.21966553 C29.00017395 35.22417725 30.23122864 35.22868896 31.49958801 35.2333374 C34.54781318 35.24515223 37.5959424 35.26162525 40.64411926 35.28216553 C40.31411926 33.63216553 39.98411926 31.98216553 39.64411926 30.28216553 C38.67137054 30.27407867 37.69862183 30.26599182 36.69639587 30.25765991 C27.54345922 30.18028274 18.39067276 30.09256512 9.23793221 29.99463844 C4.53204947 29.94462409 -0.17381025 29.8982947 -4.87980652 29.86029053 C-9.41863167 29.82350239 -13.95726662 29.77716048 -18.49592972 29.72410202 C-20.23029886 29.70552353 -21.96470883 29.69042844 -23.69913864 29.67882156 C-26.12251651 29.66201787 -28.54545546 29.63299805 -30.96867371 29.60101318 C-31.69084076 29.598853 -32.41300781 29.59669281 -33.15705872 29.59446716 C-38.12777641 29.51026985 -38.12777641 29.51026985 -40.35588074 27.28216553 C-39.80032518 22.72660997 -39.80032518 22.72660997 -38.35588074 21.28216553 C-36.00600812 21.0468878 -33.65032035 20.86830136 -31.29338074 20.71966553 C-30.00302917 20.63587646 -28.71267761 20.5520874 -27.38322449 20.46575928 C-26.38420105 20.40517334 -25.38517761 20.3445874 -24.35588074 20.28216553 C-24.02588074 18.96216553 -23.69588074 17.64216553 -23.35588074 16.28216553 C-24.5121698 16.19128662 -24.5121698 16.19128662 -25.69181824 16.09857178 C-26.69470886 16.01478271 -27.69759949 15.93099365 -28.73088074 15.84466553 C-29.72861511 15.76345459 -30.72634949 15.68224365 -31.75431824 15.59857178 C-34.35588074 15.28216553 -34.35588074 15.28216553 -36.35588074 14.28216553 C-36.3984243 12.28261807 -36.39668857 10.28174916 -36.35588074 8.28216553 C-35.35588074 7.28216553 -35.35588074 7.28216553 -32.58024597 7.16864014 C-31.37054138 7.17387695 -30.16083679 7.17911377 -28.91447449 7.18450928 C-27.60929871 7.18773193 -26.30412292 7.19095459 -24.95939636 7.1942749 C-23.57072384 7.20263152 -22.18205197 7.21109648 -20.79338074 7.21966553 C-19.40080418 7.22467887 -18.00822592 7.22924206 -16.61564636 7.2333374 C-13.19568203 7.24517119 -9.7758023 7.26165673 -6.35588074 7.28216553 C-6.56213074 6.49841553 -6.76838074 5.71466553 -6.98088074 4.90716553 C-7.10463074 4.04091553 -7.22838074 3.17466553 -7.35588074 2.28216553 C-4.86718886 -0.20652635 -3.39688831 0.03539369 0 0 Z " fill="#37D8CB" transform="translate(590.3558807373047,320.71783447265625)"/>
<path d="M0 0 C10.56 0 21.12 0 32 0 C32.029729 3.8825354 32.029729 3.8825354 32.06005859 7.84350586 C32.12711107 16.41704454 32.2047482 24.99046418 32.28752708 33.56386471 C32.33736941 38.75942782 32.38370019 43.95497179 32.421875 49.15063477 C32.45888058 54.16928227 32.50528126 59.18776472 32.55806351 64.20627022 C32.57652656 66.11627861 32.59166402 68.02632228 32.60334396 69.9363842 C32.62034562 72.62174075 32.64941275 75.3067259 32.68115234 77.99194336 C32.68331253 78.77310013 32.68547272 79.5542569 32.68769836 80.35908508 C32.79812631 87.72264183 33.70709458 95.84683556 38 102 C43.83360635 106.38574743 51.08885152 107.63424954 58.23828125 106.7109375 C62.97974087 105.65727981 67.4322003 104.43644548 70.15625 100.203125 C73.62460754 93.61324567 74.15300658 87.6636787 74.20532227 80.26245117 C74.21522186 79.39365326 74.22512146 78.52485535 74.23532104 77.62973022 C74.2668251 74.76750381 74.29164951 71.90526081 74.31640625 69.04296875 C74.33698536 67.05470863 74.35798208 65.06645278 74.37937927 63.07820129 C74.43450108 57.85205559 74.48395391 52.62587106 74.53222656 47.3996582 C74.58251389 42.0639298 74.63816217 36.7282576 74.69335938 31.39257812 C74.80081996 20.92843171 74.90179614 10.46423739 75 0 C85.56 0 96.12 0 107 0 C107.09077756 12.37088663 107.16398945 24.74154793 107.20724869 37.11269379 C107.22802277 42.85862211 107.25615224 48.60430851 107.30175781 54.35009766 C107.34558132 59.90685872 107.36921341 65.46338875 107.37950897 71.02030945 C107.38683536 73.12834809 107.40113973 75.23637572 107.42292023 77.34431458 C107.59272344 94.47710335 107.14762255 111.80193996 95 125.20703125 C83.04777084 136.71105182 67.10670012 139.50623694 51.04467773 139.35131836 C36.43958963 138.92906992 22.48474401 135.12237525 11.67578125 124.828125 C1.87201399 114.13310617 -0.17186455 99.49067385 -0.11352539 85.48461914 C-0.11367142 84.55700775 -0.11381744 83.62939636 -0.1139679 82.67367554 C-0.11327485 79.62747811 -0.10551105 76.58134291 -0.09765625 73.53515625 C-0.09578991 71.41523777 -0.09436703 69.29531885 -0.09336853 67.17539978 C-0.08956038 61.6105733 -0.07974467 56.04577315 -0.06866455 50.48095703 C-0.05841379 44.7965531 -0.05386307 39.11214489 -0.04882812 33.42773438 C-0.03812083 22.28514286 -0.02053786 11.14257774 0 0 Z " fill="#E77622" transform="translate(222,326)"/>
<path d="M0 0 C73.46933962 0 73.46933962 0 86.875 12.25 C95.77298558 21.916157 97.61051334 34.0641131 97.3125 46.6640625 C96.6736862 58.74296669 91.88205955 67.56013748 83.25 75.6875 C71.76534328 85.26898503 59.8936188 86.31575628 45.4375 86.125 C41.003125 86.08375 36.56875 86.0425 32 86 C32 102.5 32 119 32 136 C21.44 136 10.88 136 0 136 C0 91.12 0 46.24 0 0 Z M32 26 C32 37.55 32 49.1 32 61 C48.32459905 61.15706396 48.32459905 61.15706396 61.3125 52.75 C63.97126829 48.41719242 64.4454177 44.56543461 63.59375 39.66015625 C62.00831733 33.98845962 59.93465178 31.19300997 55 28 C47.36615654 25.10402133 47.36615654 25.10402133 32 26 Z " fill="#E77622" transform="translate(780,326)"/>
<path d="M0 0 C10.56 0 21.12 0 32 0 C32 44.88 32 89.76 32 136 C21.44 136 10.88 136 0 136 C0 91.12 0 46.24 0 0 Z " fill="#E77623" transform="translate(698,326)"/>
<path d="M0 0 C8.41685845 5.95067119 13.17549033 12.60999799 15.75390625 22.6484375 C16.49106336 26.95854999 16.05199873 30.61506264 14.19140625 34.5859375 C11.75390625 37.6484375 11.75390625 37.6484375 8.12890625 38.5859375 C6.33742562 38.61911307 4.54569404 38.6484375 2.75390625 38.6484375 C3.34171875 40.535625 3.34171875 40.535625 3.94140625 42.4609375 C4.609375 44.60546875 4.609375 44.60546875 4.75390625 46.6484375 C2.84684825 49.30336138 0.73914814 50.21401258 -2.30859375 51.2109375 C-5.04977414 52.11445506 -6.15310169 52.55544544 -8.24609375 54.6484375 C-12.91379466 55.34777945 -16.96879537 55.56079349 -20.87109375 52.7734375 C-22.24609375 50.6484375 -22.24609375 50.6484375 -22.24609375 48.6484375 C-22.85606201 48.54821289 -23.46603027 48.44798828 -24.09448242 48.34472656 C-26.87708653 47.87835947 -29.65509616 47.38865301 -32.43359375 46.8984375 C-33.8731543 46.66253906 -33.8731543 46.66253906 -35.34179688 46.421875 C-40.5975825 45.47619731 -44.47420933 44.71810227 -48.24609375 40.6484375 C-52.19462301 32.3126535 -54.47259982 21.88439984 -53.24609375 12.6484375 C-51.62209191 9.01376671 -50.58496331 7.87435054 -47.24609375 5.6484375 C-45.29428334 5.42072629 -43.34201526 5.19552965 -41.38671875 5 C-38.04025861 4.45039888 -35.29459295 3.1091767 -32.24609375 1.6484375 C-33.23609375 1.3184375 -34.22609375 0.9884375 -35.24609375 0.6484375 C-34.62109375 -1.7265625 -34.62109375 -1.7265625 -33.24609375 -4.3515625 C-22.76553451 -8.95502922 -9.49267313 -5.71211288 0 0 Z " fill="#5BE0E5" transform="translate(735.24609375,267.3515625)"/>
<path d="M0 0 C6.5278125 -0.0928125 6.5278125 -0.0928125 13.1875 -0.1875 C14.55156982 -0.21481201 15.91563965 -0.24212402 17.32104492 -0.27026367 C18.40490479 -0.27775635 19.48876465 -0.28524902 20.60546875 -0.29296875 C21.71043701 -0.3086792 22.81540527 -0.32438965 23.95385742 -0.34057617 C27.38534436 0.0430837 29.22780814 0.98388866 32 3 C34.34027224 6.00892145 34.41229791 9.27463484 34.328125 13.02734375 C33.8079354 16.15467409 32.25878504 17.87408467 30 20 C29.34 20 28.68 20 28 20 C30.31 24.95 32.62 29.9 35 35 C30.38 35 25.76 35 21 35 C16 25.25 16 25.25 16 23 C14.68 23 13.36 23 12 23 C12 26.96 12 30.92 12 35 C8.04 35 4.08 35 0 35 C0 23.45 0 11.9 0 0 Z M12 9 C12 10.65 12 12.3 12 14 C13.27875 14.061875 14.5575 14.12375 15.875 14.1875 C16.95394531 14.23970703 16.95394531 14.23970703 18.0546875 14.29296875 C18.69664062 14.19628906 19.33859375 14.09960938 20 14 C20.66 13.01 21.32 12.02 22 11 C21.67 10.34 21.34 9.68 21 9 C18.03 9 15.06 9 12 9 Z " fill="#0049AC" transform="translate(548,495)"/>
<path d="M0 0 C4.33125 -0.103125 8.6625 -0.20625 13.125 -0.3125 C14.47996582 -0.35802002 15.83493164 -0.40354004 17.23095703 -0.45043945 C27.17266155 -0.56524829 27.17266155 -0.56524829 30.796875 2.2421875 C33.91837397 6.14959579 34.54497557 9.06926863 34 14 C32.1875 17.5625 32.1875 17.5625 30 20 C29.34 20 28.68 20 28 20 C30.31 24.95 32.62 29.9 35 35 C30.38 35 25.76 35 21 35 C19.53515625 32.16796875 18.0703125 29.3359375 16.60546875 26.50390625 C15.18581516 23.71308782 15.18581516 23.71308782 12 23 C12 26.96 12 30.92 12 35 C8.04 35 4.08 35 0 35 C0 23.45 0 11.9 0 0 Z M12 9 C12 10.65 12 12.3 12 14 C14.64 14 17.28 14 20 14 C20.33 12.35 20.66 10.7 21 9 C18.03 9 15.06 9 12 9 Z " fill="#0049AC" transform="translate(319,495)"/>
<path d="M0 0 C4.62216596 3.80044757 6.59782959 7.13629145 7.21875 13.1015625 C7.44186634 18.51213365 6.70251724 23.25175258 4 28 C-0.78884144 32.78884144 -5.63404333 34.29501848 -12.3125 34.375 C-18.0391749 34.27134978 -22.46014971 33.63411661 -27 30 C-31.75297555 24.27205511 -32.37662633 19.28144237 -32 12 C-30.9494564 6.46077009 -29.41885556 3.53508444 -25 0 C-17.11062398 -4.57583809 -7.88937602 -4.57583809 0 0 Z M-18 9 C-19.72973114 10.72973114 -19.17208117 13.02516963 -19.1875 15.375 C-19.20167969 16.35210938 -19.21585938 17.32921875 -19.23046875 18.3359375 C-19.19541983 21.22787022 -19.19541983 21.22787022 -17 24 C-13.83087902 24.89562115 -11.82297146 25.28915213 -8.6875 24.1875 C-6.84902178 23.09312675 -6.84902178 23.09312675 -6 21 C-5.85283458 19.19156337 -5.7789113 17.37668434 -5.75 15.5625 C-5.72421875 14.59441406 -5.6984375 13.62632812 -5.671875 12.62890625 C-5.77537884 9.97211511 -5.77537884 9.97211511 -7.3984375 8.20703125 C-11.6045221 5.03707968 -13.86400254 6.09362341 -18 9 Z " fill="#0049AC" transform="translate(235,497)"/>
<path d="M0 0 C2 1.875 2 1.875 3 4 C3 5.65 3 7.3 3 9 C-0.3 9 -3.6 9 -7 9 C-7.33 8.34 -7.66 7.68 -8 7 C-13.83680873 5.62369708 -13.83680873 5.62369708 -19 8 C-19 8.66 -19 9.32 -19 10 C-16.36 10.66 -13.72 11.32 -11 12 C-11 14.31 -11 16.62 -11 19 C-14.96 19.495 -14.96 19.495 -19 20 C-19 21.32 -19 22.64 -19 24 C-16.01405576 25.49297212 -13.29146376 25.11755228 -10 25 C-9.34 24.67 -8.68 24.34 -8 24 C-7.53101037 21.1840151 -7.53101037 21.1840151 -7.375 17.9375 C-7.25125 15.978125 -7.1275 14.01875 -7 12 C-1.39 12 4.22 12 10 12 C10 14.31 10 16.62 10 19 C7.69 19 5.38 19 3 19 C3.061875 20.051875 3.12375 21.10375 3.1875 22.1875 C2.98516298 26.30168617 2.66422182 27.90606499 0 31 C-6.88697417 35.43827224 -15.73756044 35.02856773 -23.578125 33.49609375 C-26.78938787 32.45540671 -28.79138916 31.24120629 -31 28.6875 C-32.20618366 25.44588143 -32.49093794 23.43656559 -32 20 C-30 16.625 -30 16.625 -28 14 C-28.515625 13.484375 -29.03125 12.96875 -29.5625 12.4375 C-31 10 -31 10 -31.0625 6.5625 C-29.64330565 1.80402482 -28.09428803 0.72952535 -24 -2 C-16.18252523 -4.62242254 -7.23254318 -3.68202198 0 0 Z " fill="#0049AC" transform="translate(437,497)"/>
<path d="M0 0 C10.23 0 20.46 0 31 0 C31 2.97 31 5.94 31 9 C24.73 9 18.46 9 12 9 C12 10.32 12 11.64 12 13 C17.28 13 22.56 13 28 13 C28 15.97 28 18.94 28 22 C22.72 22 17.44 22 12 22 C12 23.32 12 24.64 12 26 C18.27 26 24.54 26 31 26 C31 28.97 31 31.94 31 35 C20.77 35 10.54 35 0 35 C0 23.45 0 11.9 0 0 Z " fill="#0049AC" transform="translate(711,495)"/>
<path d="M0 0 C3.96 0 7.92 0 12 0 C12.03738281 1.62550781 12.07476562 3.25101562 12.11328125 4.92578125 C12.17893106 7.05471096 12.24537874 9.18361617 12.3125 11.3125 C12.33505859 12.38435547 12.35761719 13.45621094 12.38085938 14.56054688 C12.41630859 15.58857422 12.45175781 16.61660156 12.48828125 17.67578125 C12.51446533 18.62364502 12.54064941 19.57150879 12.56762695 20.5480957 C13.06687042 23.3792093 13.66683603 24.35369717 16 26 C19.31818985 25.75794651 19.31818985 25.75794651 22 24 C22.15764405 22.22130274 22.25100677 20.43681524 22.31640625 18.65234375 C22.35830078 17.57275391 22.40019531 16.49316406 22.44335938 15.38085938 C22.48267578 14.24455078 22.52199219 13.10824219 22.5625 11.9375 C22.62727539 10.22723633 22.62727539 10.22723633 22.69335938 8.48242188 C22.79982738 5.65510492 22.90045262 2.82756908 23 0 C26.96 0 30.92 0 35 0 C35.10804105 4.37566252 35.18735287 8.74865081 35.25 13.125 C35.28351563 14.3625 35.31703125 15.6 35.3515625 16.875 C35.47509934 28.36392587 35.47509934 28.36392587 31 33 C25.04141644 36.72411473 18.88516201 36.69225814 12 36 C7.39053098 34.86409513 4.05766481 32.64567727 1 29 C-0.38308781 26.23382437 -0.11210196 23.98982 -0.09765625 20.8984375 C-0.09443359 19.68671875 -0.09121094 18.475 -0.08789062 17.2265625 C-0.07951172 15.95554687 -0.07113281 14.68453125 -0.0625 13.375 C-0.05798828 12.09625 -0.05347656 10.8175 -0.04882812 9.5 C-0.03701213 6.33331355 -0.01907621 3.16665104 0 0 Z " fill="#0049AC" transform="translate(262,495)"/>
<path d="M0 0 C1.93166016 0.01740234 1.93166016 0.01740234 3.90234375 0.03515625 C5.19269531 0.04417969 6.48304688 0.05320312 7.8125 0.0625 C8.81152344 0.07410156 9.81054688 0.08570313 10.83984375 0.09765625 C15.93225802 11.48214007 19.81286854 23.30651295 23.83984375 35.09765625 C19.54984375 35.09765625 15.25984375 35.09765625 10.83984375 35.09765625 C10.50984375 33.77765625 10.17984375 32.45765625 9.83984375 31.09765625 C5.87984375 31.09765625 1.91984375 31.09765625 -2.16015625 31.09765625 C-2.49015625 32.41765625 -2.82015625 33.73765625 -3.16015625 35.09765625 C-7.45015625 35.09765625 -11.74015625 35.09765625 -16.16015625 35.09765625 C-14.13741398 29.30340316 -12.11116306 23.5104013 -10.07958984 17.71923828 C-9.50370817 16.07722623 -8.92841829 14.43500638 -8.35400391 12.79248047 C-7.66730036 10.83066537 -6.97691823 8.87019227 -6.28515625 6.91015625 C-5.89585937 5.80285156 -5.5065625 4.69554687 -5.10546875 3.5546875 C-3.78282163 0.11689807 -3.78282163 0.11689807 0 0 Z M2.83984375 13.09765625 C2.17984375 16.06765625 1.51984375 19.03765625 0.83984375 22.09765625 C2.81984375 22.09765625 4.79984375 22.09765625 6.83984375 22.09765625 C5.84984375 19.12765625 4.85984375 16.15765625 3.83984375 13.09765625 C3.50984375 13.09765625 3.17984375 13.09765625 2.83984375 13.09765625 Z " fill="#0049AD" transform="translate(615.16015625,494.90234375)"/>
<path d="M0 0 C3.09109442 2.70470762 4.7411046 4.53000072 5.4609375 8.6171875 C4.7754513 13.64795909 2.29749791 17.24750937 -0.375 21.5 C-0.91648682 22.37986572 -1.45797363 23.25973145 -2.01586914 24.16625977 C-14.6830334 44.53274565 -14.6830334 44.53274565 -22 51 C-25.3125 51.3125 -25.3125 51.3125 -28 51 C-31.37902451 42.89637515 -27.77730676 36.32908238 -24.6015625 28.59375 C-23.11827693 25.20338297 -21.57344017 21.84940233 -20 18.5 C-19.21882812 16.79070312 -19.21882812 16.79070312 -18.421875 15.046875 C-10.45286637 -2.09856782 -10.45286637 -2.09856782 0 0 Z " fill="#FEAA3F" transform="translate(759,207)"/>
<path d="M0 0 C4.29 0 8.58 0 13 0 C14.98 6.27 16.96 12.54 19 19 C20.94040899 14.47237903 22.67376876 10.20808897 24.1875 5.5625 C24.785625 3.726875 25.38375 1.89125 26 0 C29.96 0 33.92 0 38 0 C36.52191655 7.62464903 34.10878898 14.71620099 31.4375 22 C31.02564453 23.14339844 30.61378906 24.28679688 30.18945312 25.46484375 C27.13975694 33.86024306 27.13975694 33.86024306 26 35 C23.64686445 35.07271741 21.29166332 35.08370868 18.9375 35.0625 C17.64714844 35.05347656 16.35679687 35.04445313 15.02734375 35.03515625 C14.02832031 35.02355469 13.02929688 35.01195312 12 35 C8.79990937 26.56855553 5.64949905 18.12122585 2.625 9.625 C2.36251465 8.89418213 2.1000293 8.16336426 1.82958984 7.41040039 C0 2.23637921 0 2.23637921 0 0 Z " fill="#004AAC" transform="translate(654,495)"/>
<path d="M0 0 C1.8125 1.0625 1.8125 1.0625 3 3 C4.55224361 10.12060957 3.23518616 15.78656147 1.375 22.75 C1.09865723 23.8131543 0.82231445 24.87630859 0.53759766 25.97167969 C-4.72908486 45.70131977 -4.72908486 45.70131977 -11 51 C-13.625 51 -13.625 51 -16 50 C-21.76957642 41.44511083 -17.56990515 23.77307775 -16 14 C-13.84861388 3.48494123 -13.84861388 3.48494123 -9 0 C-5.45026831 -1.1832439 -3.60040463 -0.90010116 0 0 Z " fill="#FD7774" transform="translate(725,204)"/>
<path d="M0 0 C11.55 0 23.1 0 35 0 C35 3.3 35 6.6 35 10 C31.37 10 27.74 10 24 10 C24 18.25 24 26.5 24 35 C19.71 35 15.42 35 11 35 C11 26.75 11 18.5 11 10 C7.37 10 3.74 10 0 10 C0 6.7 0 3.4 0 0 Z " fill="#0049AC" transform="translate(494,495)"/>
<path d="M0 0 C11.55 0 23.1 0 35 0 C35 3.3 35 6.6 35 10 C31.04 10 27.08 10 23 10 C23 18.25 23 26.5 23 35 C19.04 35 15.08 35 11 35 C11 26.75 11 18.5 11 10 C7.37 10 3.74 10 0 10 C0 6.7 0 3.4 0 0 Z " fill="#0049AC" transform="translate(151,495)"/>
<path d="M0 0 C2.4375 1.5625 2.4375 1.5625 4 4 C4 12.72423004 -1.58189712 17.85048685 -7.359375 23.68164062 C-8.14828125 24.46732422 -8.9371875 25.25300781 -9.75 26.0625 C-10.5234375 26.85205078 -11.296875 27.64160156 -12.09375 28.45507812 C-23.23738402 39.60806084 -23.23738402 39.60806084 -30 40.3125 C-30.99 40.1578125 -30.99 40.1578125 -32 40 C-32.43849602 33.64180773 -31.85431479 31.29481628 -28 26 C-27.58298828 25.42072754 -27.16597656 24.84145508 -26.73632812 24.24462891 C-23.94936624 20.38631277 -21.10698228 16.56827745 -18.27734375 12.74121094 C-17.21179751 11.28871174 -16.16589557 9.82182749 -15.125 8.3515625 C-11.07529454 2.67775642 -7.51116828 -1.11868464 0 0 Z " fill="#F14741" transform="translate(781,230)"/>
<path d="M0 0 C3.96 0 7.92 0 12 0 C12 8.58 12 17.16 12 26 C17.94 26 23.88 26 30 26 C30 28.97 30 31.94 30 35 C20.1 35 10.2 35 0 35 C0 23.45 0 11.9 0 0 Z " fill="#004AAC" transform="translate(763,495)"/>
<path d="M0 0 C3.51551024 0.86283314 4.85828082 2.57815565 6.92578125 5.47265625 C10.48904686 12.64566484 11.60273996 21.54430013 11.92578125 29.47265625 C10.96875 31.921875 10.96875 31.921875 9.92578125 33.47265625 C6.27940573 33.47265625 4.01168777 33.36524755 1.1484375 31.01171875 C-0.73835643 28.91528105 -2.41571622 26.75446412 -4.07421875 24.47265625 C-4.73292969 23.58320313 -5.39164063 22.69375 -6.0703125 21.77734375 C-11.50540265 13.92544289 -11.50540265 13.92544289 -11.82421875 9.09765625 C-10.43280002 2.37246574 -6.71644041 -0.49329788 0 0 Z " fill="#B4EB87" transform="translate(670.07421875,240.52734375)"/>
<path d="M0 0 C2 1.625 2 1.625 3 4 C3 7.5 3 7.5 2 11 C-1.80963043 14.64430685 -6.11457043 16.70812319 -10.875 18.8125 C-11.55691406 19.13669922 -12.23882813 19.46089844 -12.94140625 19.79492188 C-17.64915831 21.88875065 -20.85396757 22.36066772 -26 21 C-28 19 -28 19 -28.5 15.6875 C-28 12 -28 12 -25.75 9.5 C-9.48454165 -2.2017686 -9.48454165 -2.2017686 0 0 Z " fill="#5BE0E5" transform="translate(789,266)"/>
<path d="M0 0 C0.79792969 0.00386719 1.59585938 0.00773437 2.41796875 0.01171875 C3.21589844 0.00785156 4.01382813 0.00398438 4.8359375 0 C10.79136108 0.01011108 10.79136108 0.01011108 11.91796875 1.13671875 C12.10546875 3.57421875 12.10546875 3.57421875 11.91796875 6.13671875 C9.35847876 8.69620874 7.6458968 8.39740606 4.15234375 8.41015625 C3.415 8.40242188 2.67765625 8.3946875 1.91796875 8.38671875 C0.81195312 8.39832031 0.81195312 8.39832031 -0.31640625 8.41015625 C-5.82871165 8.39003835 -5.82871165 8.39003835 -8.08203125 6.13671875 C-7.32167657 -0.09818964 -6.12135273 0.01039279 0 0 Z " fill="#37D8CA" transform="translate(551.08203125,398.86328125)"/>
<path d="M0 0 C0.78503906 0.00515625 1.57007813 0.0103125 2.37890625 0.015625 C3.55259766 0.00789063 3.55259766 0.00789063 4.75 0 C6.94140625 0.265625 6.94140625 0.265625 9.94140625 2.265625 C9.06640625 7.140625 9.06640625 7.140625 7.94140625 8.265625 C6.11024742 8.36413671 4.27520692 8.39535129 2.44140625 8.390625 C1.44109375 8.39320313 0.44078125 8.39578125 -0.58984375 8.3984375 C-3.05859375 8.265625 -3.05859375 8.265625 -4.05859375 7.265625 C-4.24609375 4.828125 -4.24609375 4.828125 -4.05859375 2.265625 C-2.05859375 0.265625 -2.05859375 0.265625 0 0 Z " fill="#37D8CB" transform="translate(590.05859375,355.734375)"/>
<path d="M0 0 C1.23556641 0.01740234 1.23556641 0.01740234 2.49609375 0.03515625 C3.32238281 0.04417969 4.14867187 0.05320312 5 0.0625 C5.63808594 0.07410156 6.27617188 0.08570313 6.93359375 0.09765625 C7.59359375 1.74765625 8.25359375 3.39765625 8.93359375 5.09765625 C7.87109375 6.59765625 7.87109375 6.59765625 5.93359375 8.09765625 C1.56652467 8.48757313 -0.37154522 8.56089694 -4.06640625 6.09765625 C-2.99738005 0.14165312 -2.99738005 0.14165312 0 0 Z " fill="#37D8CB" transform="translate(543.06640625,327.90234375)"/>
<path d="M0 0 C2.97 0 5.94 0 9 0 C9.625 2.875 9.625 2.875 10 6 C8 8 8 8 4.5 8.25 C1 8 1 8 -1 6 C-0.625 2.875 -0.625 2.875 0 0 Z " fill="#37D9CA" transform="translate(531,399)"/>
<path d="M0 0 C3.375 0.6875 3.375 0.6875 4.375 1.6875 C4.5 4.1875 4.5 4.1875 4.375 6.6875 C3.375 7.6875 3.375 7.6875 1.30859375 7.78515625 C0.48488281 7.77355469 -0.33882812 7.76195312 -1.1875 7.75 C-2.01378906 7.74097656 -2.84007812 7.73195313 -3.69140625 7.72265625 C-4.32949219 7.71105469 -4.96757813 7.69945312 -5.625 7.6875 C-5.955 5.7075 -6.285 3.7275 -6.625 1.6875 C-3.625 -0.3125 -3.625 -0.3125 0 0 Z " fill="#37D8CA" transform="translate(576.625,370.3125)"/>
<path d="M0 0 C3.375 0.6875 3.375 0.6875 4.375 1.6875 C4.41563832 3.35367115 4.417721 5.02138095 4.375 6.6875 C1.16048731 8.29475635 -2.06112536 7.74498185 -5.625 7.6875 C-5.955 5.7075 -6.285 3.7275 -6.625 1.6875 C-3.625 -0.3125 -3.625 -0.3125 0 0 Z " fill="#37D9CA" transform="translate(538.625,427.3125)"/>
<path d="M0 0 C0.33 0 0.66 0 1 0 C1 1.98 1 3.96 1 6 C0.67 6 0.34 6 0 6 C0 4.02 0 2.04 0 0 Z " fill="#58E6E9" transform="translate(647,208)"/>
</svg>
